<?xml version="1.0" encoding="UTF-8" standalone="no"?>
<svg width="42px" height="42px" viewBox="0 0 42 42" version="1.1" xmlns="http://www.w3.org/2000/svg" xmlns:xlink="http://www.w3.org/1999/xlink">
    <!-- Generator: Sketch 3.8.1 (29687) - http://www.bohemiancoding.com/sketch -->
    <title>Fill 1 Copy 2</title>
    <desc>Created with Sketch.</desc>
    <defs></defs>
    <g id="Page-1" stroke="none" stroke-width="1" fill="none" fill-rule="evenodd">
        <g id="Artboard-24" transform="translate(-858.000000, -136.000000)" fill="#FEFEFE">
            <path d="M885.55141,157.03327 C885.557422,153.415854 882.600604,150.446033 878.995351,150.44827 C875.417781,150.450647 872.454811,153.425082 872.424053,157.045713 C872.393994,160.570156 875.4038,163.571014 878.97424,163.576606 C882.607734,163.582478 885.545399,160.659913 885.55141,157.03327 M883.458471,136.477306 C883.150332,138.938222 883.867832,140.8571 886.061433,141.943694 C888.363667,143.084255 890.385723,142.428272 892.144799,140.614811 C893.932535,142.040582 895.443031,143.690187 896.68705,145.640941 C894.68988,147.180936 893.801255,149.149026 894.71183,151.577647 C895.575849,153.881558 897.444954,154.811287 899.888954,154.76529 C900.095731,156.973851 900.027225,159.134877 899.569071,161.287515 C897.063975,161.009995 895.126224,161.824941 894.090519,164.129271 C893.091864,166.350974 893.713874,168.302427 895.490566,169.966013 C894.095273,171.798209 892.417286,173.308145 890.491558,174.586698 C888.930871,172.658174 886.978999,171.820159 884.618605,172.731573 C882.39844,173.589161 881.43977,175.396471 881.470109,177.739389 C880.069503,178.150846 876.27453,178.027395 874.808214,177.514436 C875.082939,175.006404 874.163835,173.115768 871.78974,172.070277 C870.240797,171.38815 868.10242,171.4684 866.120209,173.536034 C864.27599,172.173037 862.77626,170.490856 861.490297,168.584002 C863.357166,167.121182 864.141633,165.258927 863.413229,163.018489 C862.621631,160.583717 860.748331,159.563112 858.203949,159.636092 C857.85918,157.288142 857.95425,154.991501 858.468468,152.652777 C861.017324,152.898841 863.007364,152.037199 863.992877,149.597114 C864.85396,147.464888 864.227616,145.593126 862.546274,143.983646 C863.934437,142.133974 865.625286,140.647107 867.544862,139.369673 C869.087933,141.323782 871.028481,142.178294 873.396983,141.291206 C875.658952,140.444244 876.620557,138.615543 876.610351,136.134774 C878.902378,135.908284 881.167982,135.93261 883.458471,136.477306" id="Fill-1-Copy-2"></path>
        </g>
    </g>
</svg>