<?xml version="1.0" encoding="UTF-8" standalone="no"?>
<svg width="10px" height="23px" viewBox="0 0 10 23" version="1.1" xmlns="http://www.w3.org/2000/svg" xmlns:xlink="http://www.w3.org/1999/xlink">
    <!-- Generator: Sketch 3.8.1 (29687) - http://www.bohemiancoding.com/sketch -->
    <title>Fill 2</title>
    <desc>Created with Sketch.</desc>
    <defs></defs>
    <g id="Page-1" stroke="none" stroke-width="1" fill="none" fill-rule="evenodd">
        <g id="Artboard-24" transform="translate(-677.000000, -350.000000)" fill="#FFFFFF">
            <path d="M677.3659,353.01531 C677.54521,353.01531 677.714544,353.009705 677.883091,353.016613 C678.168465,353.028343 678.417478,353.120489 678.54612,353.395102 C678.776493,353.887634 679.002009,354.382382 679.217943,354.8813 C679.520644,355.580932 679.790792,356.295423 680.116465,356.983976 C680.338831,357.453439 680.240905,357.858126 679.963932,358.235312 C679.659,358.649904 679.320988,359.040776 678.98652,359.433472 C678.728974,359.735716 678.690513,360.008765 678.902246,360.34998 C680.073409,362.234999 681.557905,363.806565 683.543054,364.863312 C684.059982,365.138577 684.599095,365.375524 685.139652,365.602435 C685.535553,365.768741 685.756212,365.693148 686.031479,365.359623 C686.479624,364.816522 686.924881,364.271335 687.368956,363.724976 C687.674414,363.349093 687.916339,363.262421 688.361465,363.465872 C689.58264,364.023831 690.792001,364.607466 692.010289,365.171812 C692.317715,365.314137 692.454495,365.547304 692.406583,365.860627 C692.321653,366.415588 692.249063,366.978501 692.08918,367.513912 C691.914989,368.096114 691.443741,368.477601 690.955428,368.811907 C689.73596,369.646826 688.408064,370.041999 686.941289,369.633402 C685.964401,369.361525 685.003922,369.027089 684.046462,368.69187 C681.84538,367.921857 680.032322,366.573683 678.433624,364.918052 C677.111898,363.549025 675.957013,362.050315 675.021737,360.39703 C674.253695,359.039603 673.889167,357.587553 674.238336,356.026022 C674.484987,354.923267 675.085401,354.024746 675.952287,353.310125 C676.359083,352.975167 676.865904,352.943626 677.3659,353.01531" id="Fill-2" transform="translate(683.260602, 361.389750) rotate(52.000000) translate(-683.260602, -361.389750) "></path>
        </g>
    </g>
</svg>