<?xml version="1.0" encoding="UTF-8" standalone="no"?>
<svg width="52px" height="38px" viewBox="0 0 52 38" version="1.1" xmlns="http://www.w3.org/2000/svg" xmlns:xlink="http://www.w3.org/1999/xlink">
    <!-- Generator: Sketch 3.8.1 (29687) - http://www.bohemiancoding.com/sketch -->
    <title>Group</title>
    <desc>Created with Sketch.</desc>
    <defs></defs>
    <g id="Page-1" stroke="none" stroke-width="1" fill="none" fill-rule="evenodd">
        <g id="Artboard-24" transform="translate(-671.000000, -136.000000)" fill="#FFFFFF">
            <g id="Group" transform="translate(671.000000, 136.000000)">
                <path d="M45.1988811,1.47241921 L11.6967552,1.47241921 C12.8313287,2.76078601 13.5224775,4.36664321 13.5224775,6.16851621 C13.5224775,10.0766849 10.2791489,13.2517729 6.29245954,13.2517729 L6.29095704,13.2517729 C5.05402597,13.2517729 3.94405594,12.9453256 2.81718282,12.4066042 L2.81718282,29.9635468 C2.81718282,33.9580361 5.71906893,37.3626374 9.37746254,37.3626374 L45.1988811,37.3626374 C48.8572747,37.3626374 51.6483516,33.9580361 51.6483516,29.9635468 L51.6483516,8.7047583 C51.6483516,4.70953283 48.8572747,1.47241921 45.1988811,1.47241921 L45.1988811,1.47241921 Z M18.6433646,9.46434255 C21.3063536,9.46434255 23.4727672,11.5877551 23.4727672,14.19725 C23.4727672,16.8072971 21.3063536,18.9305256 18.6433646,18.9305256 C15.9801878,18.9305256 13.8135864,16.8072971 13.8135864,14.19725 C13.8135864,11.5877551 15.9801878,9.46434255 18.6433646,9.46434255 L18.6433646,9.46434255 Z M27.0340619,27.6904996 C27.0278641,28.5249932 26.6043477,28.9267796 25.7593806,28.9271477 C23.3326593,28.9278839 20.9063137,28.9271477 18.479968,28.9271477 C16.0748452,28.9271477 13.6699101,28.9275158 11.2647872,28.9271477 C10.376999,28.9271477 9.94409191,28.5295945 9.96287313,27.6584745 C9.98465934,26.641585 9.93113287,25.601689 10.1288991,24.6135116 C10.6202158,22.1582526 12.8181818,20.3906133 15.3737423,20.3359498 C17.5087912,20.2903048 19.6462817,20.2882802 21.7811429,20.3388946 C24.4969071,20.403497 26.9074765,22.7904726 27.0098342,25.45095 C27.0383816,26.1969144 27.0398841,26.9443512 27.0340619,27.6904996 L27.0340619,27.6904996 Z M44.1358641,26.1354409 L30.6133866,26.1354409 C29.1600959,26.1354409 29.1600959,23.9268121 30.6133866,23.9268121 L44.1358641,23.9268121 C45.6383616,23.9268121 45.6383616,26.1354409 44.1358641,26.1354409 L44.1358641,26.1354409 Z M46.953047,20.4298165 L30.6133866,20.4298165 C29.1600959,20.4298165 29.1600959,18.2211877 30.6133866,18.2211877 L46.953047,18.2211877 C48.4063377,18.2211877 48.4063377,20.4298165 46.953047,20.4298165 L46.953047,20.4298165 Z M46.953047,14.7241921 L30.6133866,14.7241921 C29.1600959,14.7241921 29.1600959,12.5155633 30.6133866,12.5155633 L46.953047,12.5155633 C48.4063377,12.5155633 48.4063377,14.7241921 46.953047,14.7241921 L46.953047,14.7241921 Z" id="Fill-1"></path>
                <path d="M6.29245954,0 C2.82206593,0 0,2.76557137 0,6.16501922 C0,9.56593948 2.82206593,12.3315109 6.29095704,12.3315109 L6.29245954,12.3315109 C9.76135065,12.3315109 12.5834166,9.56593948 12.5834166,6.16649164 C12.5834166,2.76557137 9.76135065,0 6.29245954,0 L6.29245954,0 Z M9.39060939,6.80993883 L6.94905095,6.80993883 L6.94905095,9.20262004 C6.94905095,9.93882964 5.63436563,9.93882964 5.63436563,9.20262004 L5.63436563,6.80993883 L3.19280719,6.80993883 C2.44155844,6.80993883 2.44155844,5.52157202 3.19280719,5.52157202 L5.63436563,5.52157202 L5.63436563,3.12889081 C5.63436563,2.57673361 6.94905095,2.57673361 6.94905095,3.12889081 L6.94905095,5.52157202 L9.39060939,5.52157202 C9.95404595,5.52157202 9.95404595,6.80993883 9.39060939,6.80993883 L9.39060939,6.80993883 Z" id="Fill-2"></path>
            </g>
        </g>
    </g>
</svg>