<?xml version="1.0" encoding="UTF-8" standalone="no"?>
<svg width="30px" height="29px" viewBox="0 0 30 29" version="1.1" xmlns="http://www.w3.org/2000/svg" xmlns:xlink="http://www.w3.org/1999/xlink">
    <!-- Generator: Sketch 3.8.1 (29687) - http://www.bohemiancoding.com/sketch -->
    <title>Group 6</title>
    <desc>Created with Sketch.</desc>
    <defs></defs>
    <g id="Page-1" stroke="none" stroke-width="1" fill="none" fill-rule="evenodd">
        <g id="Artboard-24" transform="translate(-630.000000, -390.000000)" fill="#FFFFFF">
            <g id="Group-6" transform="translate(630.000000, 390.000000)">
                <g id="Group-2">
                    <g id="Oval-6-Copy-2-+-Imported-Layers" transform="translate(0.221483, 0.000000)">
                        <g id="Imported-Layers" transform="translate(0.474221, 0.247863)">
                            <path d="M13.6578095,0.0036876158 L15.3824995,0.0036876158 C15.4475784,0.018438079 15.5120602,0.0414607615 15.5778357,0.0467430219 C17.0274828,0.161657104 18.4318534,0.478692397 19.7773146,1.03004079 C22.1443352,1.99998341 24.1168026,3.50144104 25.6583961,5.54487852 C27.1122226,7.47170761 28.0156648,9.63633808 28.321655,12.0408629 C28.3625532,12.3625825 28.4094219,12.6833054 28.4536039,13.0045266 L28.4536039,14.7319255 C28.4387771,14.7972062 28.4159895,14.8616897 28.410417,14.9276681 C28.2959817,16.2706579 28.0100923,17.572785 27.5241899,18.8326539 C26.8164818,20.6675916 25.75691,22.2711065 24.3737349,23.6593443 C23.4894979,24.5468638 22.4960995,25.3000344 21.4037892,25.9143712 C19.4178881,27.0309215 17.2828229,27.6391788 15.0069525,27.7141271 C12.508182,27.7965503 10.1451417,27.2580587 7.92837971,26.0884865 C7.83504026,26.0392518 7.69234435,26.0279897 7.59074566,26.0590852 C6.76710966,26.3109394 5.94775254,26.5772451 5.12720131,26.8388665 C3.91806743,27.2243718 2.70813748,27.6073855 1.49999869,27.9963792 C1.04205827,28.1438838 0.588297218,28.3050426 0.132645499,28.4601218 C0.102394763,28.4298235 0.0721440262,28.3994256 0.0418932897,28.3693267 C0.0905531915,28.2609905 0.148566939,28.1556443 0.186479869,28.0436205 C0.495753846,27.1340751 0.800450409,26.222636 1.10833126,25.3126919 C1.57144615,23.9439884 2.03903895,22.5766803 2.49379509,21.2051862 C2.52882226,21.09984 2.50852242,20.950342 2.45956399,20.8469891 C2.2915928,20.4925793 2.09227627,20.1530197 1.91763797,19.8015999 C1.13251195,18.2208087 0.722733879,16.5378606 0.591282488,14.7851467 C0.48341473,13.3462789 0.628200327,11.9270452 0.973596072,10.5263491 C1.42178462,8.70795589 2.21387627,7.05201706 3.34011915,5.56251928 C4.47034239,4.06793856 5.84505925,2.84335111 7.47123535,1.90300908 C9.07571849,0.975224882 10.7890645,0.377631791 12.6269957,0.139730739 C12.9707993,0.0951803538 13.3141054,0.0490353237 13.6578095,0.0036876158 L13.6578095,0.0036876158 Z M3.55117774,25.0190779 C3.76532111,24.9558901 3.92513257,24.9118381 4.08305336,24.8616067 C5.32880655,24.4658359 6.57515679,24.073055 7.8178252,23.6679155 C7.99554828,23.6102093 8.12570606,23.6397103 8.28233322,23.7252231 C8.83221997,24.024817 9.37782782,24.3382643 9.94950704,24.5906168 C11.4306985,25.2444211 12.9938854,25.5293642 14.6081205,25.5164077 C16.2691247,25.5031522 17.8604727,25.1603036 19.3747011,24.4607529 C20.3000354,24.0331888 21.1656642,23.5090491 21.9483025,22.8622213 C23.2332622,21.8002876 24.2625833,20.5247712 25.0132792,19.0286955 C26.0366298,16.9890453 26.4070023,14.8298964 26.160419,12.5694876 C25.9349316,10.5006355 25.1797578,8.63400424 23.9368903,6.96301596 C23.1529584,5.90895583 22.2232458,5.00678561 21.141583,4.26846512 C19.6983044,3.28347304 18.1159123,2.62448613 16.3847542,2.36057244 C13.7600052,1.96021696 11.2604386,2.35758248 8.91909133,3.62662064 C7.17977349,4.56915531 5.76196923,5.87546829 4.67264419,7.53190544 C3.91269394,8.68732517 3.37474828,9.93922091 3.06726547,11.2891873 C2.8199856,12.3750406 2.74286612,13.4729535 2.80545728,14.5843212 C2.86277447,15.6042958 3.06199149,16.5967627 3.38539574,17.5612238 C3.74342913,18.6282404 4.25142259,19.6244947 4.9070874,20.541216 C4.99366023,20.6620103 4.9933617,20.7629713 4.94768707,20.8956258 C4.56616956,22.0044022 4.19052308,23.1153712 3.81408052,24.2257422 C3.7297964,24.4742078 3.64889558,24.72367 3.55117774,25.0190779 L3.55117774,25.0190779 Z" id="Fill-1"></path>
                            <path d="M10.1822586,7.55971206 C10.3181879,7.55971206 10.4465545,7.55542645 10.5743241,7.56070871 C10.7906566,7.56967859 10.9794252,7.64014195 11.076944,7.85013672 C11.2515823,8.22677186 11.4225388,8.60510131 11.5862311,8.98662005 C11.8156989,9.52162333 12.0204884,10.0679885 12.2673702,10.5945202 C12.4359385,10.9535146 12.3617047,11.2629753 12.1517408,11.5514067 C11.9205813,11.868442 11.6643457,12.1673382 11.4107967,12.4676297 C11.2155601,12.6987535 11.1864039,12.9075523 11.3469119,13.168476 C12.2347313,14.6099352 13.3600786,15.8116992 14.8649532,16.6197854 C15.2568196,16.8302785 15.6655031,17.01147 16.0752812,17.1849873 C16.3754003,17.3121602 16.542675,17.2543543 16.7513453,16.9993109 C17.0910691,16.5840056 17.4286036,16.1671057 17.7652426,15.7493088 C17.9968,15.4618741 18.1801951,15.3955966 18.5176301,15.5511742 C19.4433624,15.9778413 20.3601388,16.4241425 21.2836818,16.8556932 C21.5167319,16.9645277 21.6204203,17.1428289 21.5840995,17.3824242 C21.5197172,17.8067991 21.4646887,18.2372535 21.3434867,18.6466785 C21.2114383,19.0918833 20.854201,19.3836036 20.4840275,19.6392451 C19.5595889,20.277701 18.5529558,20.5798861 17.4410422,20.2674354 C16.7004962,20.0595337 15.9723889,19.8037925 15.2465702,19.5474534 C13.5780033,18.9586308 12.2035849,17.9276931 10.9916648,16.6616449 C9.98970867,15.6147606 9.11422848,14.4687094 8.40522684,13.2044552 C7.82299967,12.1664412 7.54666318,11.0560702 7.81135712,9.86198031 C7.99833453,9.01871227 8.45348871,8.33161975 9.11064615,7.78515495 C9.41902455,7.52901515 9.80322881,7.50489615 10.1822586,7.55971206" id="Fill-2"></path>
                        </g>
                    </g>
                </g>
            </g>
        </g>
    </g>
</svg>