<?xml version="1.0" encoding="UTF-8" standalone="no"?>
<svg width="43px" height="43px" viewBox="0 0 43 43" version="1.1" xmlns="http://www.w3.org/2000/svg" xmlns:xlink="http://www.w3.org/1999/xlink">
    <!-- Generator: Sketch 3.8.1 (29687) - http://www.bohemiancoding.com/sketch -->
    <title>Group 7</title>
    <desc>Created with Sketch.</desc>
    <defs>
        <ellipse id="path-1" cx="21.6464144" cy="21.3535856" rx="21.3535856" ry="21.3535856"></ellipse>
    </defs>
    <g id="Page-1" stroke="none" stroke-width="1" fill="none" fill-rule="evenodd">
        <g id="Artboard-24" transform="translate(-769.000000, -131.000000)">
            <g id="Group-7" transform="translate(769.000000, 131.000000)">
                <mask id="mask-2" fill="white">
                    <use xlink:href="#path-1"></use>
                </mask>
                <use id="Oval-103-Copy" fill="#FFFFFF" xlink:href="#path-1"></use>
                <path d="M27.1001975,30.666683 C23.5436524,30.5805799 19.9822489,30.5839271 16.4254724,30.6617199 C12.1674511,30.7545173 8.50552262,33.7525422 7.68686367,37.9173442 C7.35752609,39.5934681 7.44683014,41.3574263 7.41039131,43.0828343 C7.37915803,44.560321 8.10041542,45.2343717 9.57971606,45.2346025 C13.5864831,45.2351796 17.5933657,45.2347179 21.6001327,45.2347179 C25.6428758,45.2347179 29.6853876,45.2356413 33.7282464,45.2343717 C35.1360575,45.23391 35.8415826,44.5518954 35.8519937,43.137197 C35.861248,41.8709282 35.8590501,40.603159 35.811159,39.3380444 C35.6406485,34.8251368 31.6246272,30.7762162 27.1001975,30.666683 Z" id="Fill-3" fill="#76B9F4" mask="url(#mask-2)"></path>
                <path d="M29.9188274,17.6814313 C29.9188274,13.2545114 26.3093015,9.65295722 21.872325,9.65295722 C17.4356955,9.65295722 13.8258225,13.2545114 13.8258225,17.6814313 C13.8258225,22.1083513 17.4356955,25.7100209 21.872325,25.7100209 C26.3093015,25.7100209 29.9188274,22.1083513 29.9188274,17.6814313 Z" id="Fill-2" fill="#76B9F4" mask="url(#mask-2)"></path>
            </g>
        </g>
    </g>
</svg>