<?xml version="1.0" encoding="UTF-8" standalone="no"?>
<svg width="127px" height="71px" viewBox="0 0 127 71" version="1.1" xmlns="http://www.w3.org/2000/svg" xmlns:xlink="http://www.w3.org/1999/xlink">
    <!-- Generator: Sketch 3.8.1 (29687) - http://www.bohemiancoding.com/sketch -->
    <title>Imported Layers Copy</title>
    <desc>Created with Sketch.</desc>
    <defs></defs>
    <g id="Page-1" stroke="none" stroke-width="1" fill="none" fill-rule="evenodd" opacity="0.5">
        <g id="Artboard-24" transform="translate(-170.000000, -338.000000)" fill="#5D5D5D">
            <g id="Imported-Layers-Copy" style="mix-blend-mode: multiply;" transform="translate(170.000000, 338.000000)">
                <path d="M73.7997303,70.3170528 C54.3314487,70.3170528 34.862864,70.3344937 15.3951885,70.2905908 C13.3710692,70.2860803 11.2848138,70.1618893 9.33616706,69.6687338 C4.03975179,68.3278922 0.356145585,63.3987432 0.310073986,57.2950423 C0.19853222,42.6411081 0.179436754,27.9847683 0.310377088,13.3317363 C0.380393795,5.5040961 5.53313842,0.556904828 13.4486635,0.239060118 C14.1282196,0.211094595 14.8092912,0.208087549 15.4894535,0.208087549 C54.3581217,0.207185435 72.8016134,0.196059367 111.670282,0.236353777 C113.825341,0.239060118 116.060117,0.386706052 118.120305,0.957142585 C123.363678,2.40954556 126.851783,7.43672424 126.879668,13.5277956 C126.945138,28.0467134 126.979692,42.5671348 126.86815,57.0860526 C126.807833,64.9479731 121.739351,70.14084 113.820492,70.2250372 C97.4850788,70.3985438 101.572115,70.3029197 85.2354893,70.3161507 C81.4239737,70.3194585 77.611852,70.3170528 73.7997303,70.3170528 L73.7997303,70.3170528 Z M25.3148282,62.8640906 L110.643673,62.8640906 L110.643673,7.664959 L25.3148282,7.664959 L25.3148282,62.8640906 L25.3148282,62.8640906 Z M116.622675,35.1069556 C116.622675,39.2900566 116.655107,43.4740597 116.606005,47.6571607 C116.587819,49.2106004 117.241914,49.8610244 118.788041,49.8571152 C120.321134,49.8535068 120.996143,49.2286427 120.989778,47.6661819 C120.955527,39.4337934 120.958862,31.2017056 120.988566,22.9696178 C120.993415,21.5006761 120.530274,20.6821583 118.905947,20.6617104 C117.259494,20.6403604 116.580544,21.31454 116.60358,22.9608974 C116.661169,27.008982 116.622372,31.0582695 116.622675,35.1069556 L116.622675,35.1069556 Z M16.973747,35.2034818 C16.9410119,32.5584845 14.6756229,30.3032004 12.0228687,30.2749342 C9.25493556,30.244563 6.98590931,32.5281134 7.01379475,35.3153438 C7.04016468,38.0183771 9.24311456,40.2297583 11.9286038,40.2496048 C14.646222,40.2700527 17.0076945,37.9080185 16.973747,35.2034818 L16.973747,35.2034818 Z" id="Fill-1"></path>
                <path d="M51.4168138,19.4525774 L62.1893842,19.4525774 L62.1893842,30.2325348 C63.0347375,30.2325348 63.7752172,30.2674166 64.5075131,30.2066742 C64.6760382,30.1925411 64.932463,29.8596612 64.9491337,29.6575877 C65.0052076,28.9810025 64.9703508,28.297501 64.9703508,27.6666229 C65.1206897,27.5944538 65.1661551,27.5556629 65.2128329,27.5529566 C67.5833986,27.4347797 67.5833986,27.4350804 67.5827924,29.7941076 C67.5827924,30.615031 67.6100716,31.4371573 67.5597566,32.2550736 C67.5473294,32.4640633 67.29242,32.8288179 67.1408687,32.8330278 C65.5471551,32.8748257 63.9525322,32.8591891 62.2460644,32.8591891 C62.2460644,32.1540369 62.2336372,31.5270679 62.2509141,30.9003996 C62.2618258,30.4920429 62.1563461,30.2442623 61.6816874,30.2478708 C60.1870883,30.2589968 58.6924893,30.2349405 57.1984964,30.2758363 C57.0245155,30.2803468 56.7417208,30.5891704 56.7126229,30.787034 C56.6386659,31.2795881 56.6677637,31.7901844 56.6835251,32.292361 C56.6977709,32.7704812 56.4758998,32.9253441 56.0103341,32.9527082 C54.0838138,33.0660738 54.0425919,33.0771999 54.0926038,31.1908802 C54.1141241,30.3852927 53.8137494,30.2171989 53.0784224,30.2295278 C51.3483126,30.2605003 51.3461909,30.2289264 51.3477064,28.5203231 C51.3504344,25.6079995 51.3537685,22.6959767 51.3592243,19.7833524 C51.3592243,19.7051692 51.3849881,19.6275874 51.4168138,19.4525774 L51.4168138,19.4525774 Z M60.8051146,24.8496227 C60.8051146,23.7631771 60.7896563,22.677333 60.8117828,21.5920903 C60.8214821,21.1118651 60.7041814,20.854462 60.153747,20.8583712 C57.9113938,20.8755113 55.6681313,20.8716022 53.425778,20.8604761 C52.9532411,20.8583712 52.7659236,21.0306749 52.769864,21.5142078 C52.7868377,23.7129595 52.7868377,25.9111097 52.769864,28.1095607 C52.7656205,28.6198563 52.9426325,28.805391 53.4679093,28.800279 C55.6835895,28.778929 57.8992697,28.778929 60.1155561,28.800279 C60.6423484,28.805391 60.8223914,28.6162479 60.8111766,28.1071551 C60.7881408,27.0216116 60.8042053,25.9357675 60.8051146,24.8496227 L60.8051146,24.8496227 Z" id="Fill-2"></path>
                <path d="M78.6357327,33.0606611 C79.3816683,33.0606611 80.0421289,33.0438217 80.7019833,33.0663745 C81.1633055,33.0820111 81.3933604,32.9478969 81.3675967,32.4397062 C81.3339523,31.7556034 81.3594129,31.0684935 81.3594129,30.3035011 C80.9914463,30.2815497 80.6816754,30.2478708 80.3719045,30.2472693 C78.2620072,30.2418567 76.1524129,30.2274228 74.0428186,30.2541856 C73.4190334,30.2623046 73.1477566,30.1272882 73.1562434,29.4245417 C73.1941313,26.3251799 73.1717017,23.2252167 73.1744296,20.1255542 C73.1747327,19.9195716 73.1998902,19.7129875 73.2165609,19.4597943 L83.9791289,19.4597943 C83.9967088,19.7241136 84.0312625,20.0016639 84.0312625,20.2795149 C84.0345967,25.1019138 84.0215632,29.9237112 84.0476301,34.745208 C84.0515704,35.4254017 83.8830453,35.6933295 83.1586301,35.6647625 C81.8789308,35.6142442 80.5949881,35.6361956 79.3134702,35.6560421 C78.8033484,35.6644618 78.5884487,35.4960673 78.6257303,34.9653237 C78.6669523,34.3861668 78.6357327,33.8018978 78.6357327,33.0606611 L78.6357327,33.0606611 Z M78.6420979,28.7912579 C79.7369045,28.7912579 80.8317112,28.7774255 81.9256086,28.7978734 C82.3857184,28.8068945 82.6136516,28.6775916 82.6100143,28.1766178 C82.5957685,25.9520055 82.5981933,23.7270926 82.6094081,21.5024803 C82.6115298,21.0814939 82.4863484,20.8619796 82.0238138,20.8643853 C79.7281146,20.8734064 77.4321122,20.8719029 75.1364129,20.8673923 C74.7296492,20.8661895 74.5723389,21.0430038 74.5744606,21.4444443 C74.5838568,23.69612 74.5847661,25.947495 74.5747637,28.1988699 C74.572642,28.6439127 74.755716,28.8041882 75.1982458,28.797272 C76.3460955,28.778929 77.4945513,28.7912579 78.6420979,28.7912579 L78.6420979,28.7912579 Z" id="Fill-3"></path>
                <path d="M51.4019618,38.4778536 C52.1394105,38.4778536 52.8283628,38.4456782 53.5091313,38.5016093 C53.6697757,38.515141 53.8992243,38.8140413 53.9313532,39.0082964 C53.9980358,39.4217652 53.9892458,39.8553812 53.9507518,40.2751647 C53.8895251,40.9493443 54.1144272,41.2040411 54.8418735,41.1887051 C56.9760191,41.142998 59.1119833,41.1724671 61.246432,41.1724671 L62.1569523,41.1724671 L62.1569523,51.9157386 L51.4019618,51.9157386 L51.4019618,38.4778536 L51.4019618,38.4778536 Z M52.7768353,46.5048609 C52.7768353,47.6156635 52.790778,48.7267668 52.7701671,49.8372687 C52.7613771,50.323508 52.8989857,50.5658758 53.4436611,50.5613653 C55.6826802,50.543323 57.9223055,50.5460293 60.1610215,50.5601625 C60.652957,50.5622674 60.8117828,50.3571869 60.8096611,49.8928991 C60.7969308,47.6712938 60.7957184,45.4496886 60.8096611,43.2280834 C60.8126921,42.7403406 60.6053699,42.5827714 60.1370764,42.5854778 C57.8986635,42.5972052 55.6590382,42.5990095 53.419716,42.5848764 C52.9283866,42.5818693 52.7644081,42.7875512 52.7716826,43.2518391 C52.7892625,44.3355783 52.7774415,45.420821 52.7768353,46.5048609 L52.7768353,46.5048609 Z" id="Fill-4"></path>
                <path d="M84.0100453,51.9412985 L78.6411885,51.9412985 C78.6411885,51.1931455 78.6117876,50.4627342 78.6684678,49.7395397 C78.6787733,49.6075304 79.038253,49.4159816 79.2461814,49.4018485 C79.9057327,49.3585471 80.5704368,49.3862119 81.3600191,49.3862119 L81.3600191,45.5320817 C81.3600191,43.9711243 81.3600191,43.9711243 82.9185728,43.9759356 C84.0085298,43.9789427 84.0094391,43.9789427 84.0100453,45.0491502 L84.0100453,51.0009953 L84.0100453,51.9412985" id="Fill-5"></path>
                <path d="M73.1189618,35.7567781 L73.1189618,38.4718395 L75.7732315,38.4718395 L75.7732315,41.0801508 L70.5065203,41.0801508 L70.5065203,35.7832401 L73.1456348,35.7832401 L73.1189618,35.7567781" id="Fill-6"></path>
                <path d="M83.9612458,41.1105219 L78.6945346,41.1105219 L78.6945346,38.5566382 L83.9612458,38.5566382 L83.9612458,41.1105219" id="Fill-7"></path>
                <path d="M75.8208186,51.9205498 L73.1765513,51.9205498 C73.1765513,50.2937382 73.039852,48.7000041 73.2271695,47.1444595 C73.3450764,46.1599528 74.3704726,46.8470627 74.9660692,46.7036266 C75.2834177,46.6272476 75.8241527,46.50877 75.8223341,47.1793412 C75.8177876,48.7342844 75.8208186,50.2883255 75.8208186,51.9205498" id="Fill-8"></path>
                <path d="M73.1456348,35.7832401 C73.1532124,34.872406 73.1601838,33.9621734 73.1677613,33.0510386 L73.1416945,33.0771999 L75.7811122,33.0771999 L75.7811122,35.7564774 L73.119568,35.7564774 L73.1456348,35.7832401" id="Fill-9"></path>
                <path d="M73.1677613,33.0510386 L70.4856062,33.0510386 L70.4856062,30.4117547 L73.1413914,30.4117547 C73.1413914,31.3039451 73.1413914,32.1901214 73.1416945,33.0771999 L73.1677613,33.0510386" id="Fill-10"></path>
                <path d="M70.3692148,46.5412461 L70.3692148,49.2554054 C69.560537,49.2554054 68.8033866,49.2563075 68.0468425,49.2539019 C67.9950119,49.2539019 67.8992315,49.2379645 67.897716,49.2226286 C67.8295179,48.5114623 67.7249475,47.7978904 67.7476802,47.0888291 C67.7519236,46.9447916 68.2299165,46.7367041 68.5093771,46.696109 C69.1319499,46.6067997 69.7669499,46.6043941 70.3967971,46.5662046 L70.3692148,46.5412461" id="Fill-11"></path>
                <path d="M65.0558258,22.1414775 C65.3225561,22.1294493 65.5080549,22.1162183 65.6929475,22.1141134 C67.6988807,22.0909591 67.897716,22.3107741 67.5546038,24.2891094 C67.5242936,24.4653222 67.2511981,24.7161098 67.0741862,24.730243 C66.4185752,24.7834677 65.7556897,24.751593 65.0558258,24.751593 L65.0558258,22.1414775" id="Fill-12"></path>
                <path d="M59.468432,35.8253388 C59.468432,36.5524424 59.4944988,37.2332375 59.4484272,37.9098227 C59.4384248,38.0625806 59.1823031,38.2036111 59.0298425,38.3395295 C58.9998353,38.367495 58.9270907,38.3476485 58.8740477,38.3515577 C56.7750621,38.5085255 56.5425823,38.2177442 56.9099427,35.8253388 L59.468432,35.8253388" id="Fill-13"></path>
                <path d="M70.3967971,46.5662046 C70.4146802,45.8830039 70.3319332,45.1784531 70.4722697,44.5205116 C70.7056587,43.4250449 71.6392148,44.1584633 72.2354177,44.0002927 C72.5900477,43.9064729 73.1347232,43.8343038 73.1025943,44.5460714 C73.0734964,45.1739425 73.095926,45.8033172 73.095926,46.5421482 C72.1526706,46.5421482 71.2615489,46.5421482 70.369821,46.5415468 C70.3692148,46.5412461 70.3967971,46.5662046 70.3967971,46.5662046" id="Fill-14"></path>
                <path d="M67.7482864,22.0368323 L67.7482864,19.4155907 C68.473611,19.4155907 69.1810525,19.3948421 69.8848568,19.4327309 C70.0267088,19.4405492 70.2622196,19.6618678 70.2725251,19.7980869 C70.316778,20.4016009 70.3295084,21.0129333 70.272222,21.6134403 C70.2564606,21.7695059 69.9527518,22.0028527 69.7666468,22.0178879 C69.1337685,22.0681056 68.494222,22.0368323 67.7482864,22.0368323" id="Fill-15"></path>
                <path d="M62.2872864,35.7751211 C63.0447399,35.7751211 63.7315704,35.7745197 64.418401,35.7757225 C64.4714439,35.7757225 64.5681337,35.7838415 64.5702554,35.7985761 C64.6678544,36.4712521 64.8036444,37.1445296 64.8166778,37.819912 C64.8200119,37.9931179 64.4456802,38.3058506 64.2213842,38.3296063 C62.2445489,38.5355889 62.2221193,38.5025114 62.2493986,36.5533445 C62.2521265,36.3419492 62.2694033,36.1317567 62.2872864,35.7751211" id="Fill-16"></path>
                <path d="M65.0124821,38.478455 C65.7696325,38.478455 66.456463,38.4778536 67.1435967,38.4790564 C67.1963365,38.4796578 67.2933294,38.4871754 67.2954511,38.50191 C67.3930501,39.1748868 67.5288401,39.8481642 67.5418735,40.523246 C67.5446014,40.6964518 67.1708759,41.0097859 66.9462768,41.0329402 C64.9721695,41.2401256 64.9476181,41.2049432 64.9742912,39.2566784 C64.9773222,39.0458845 64.994599,38.8350906 65.0124821,38.478455" id="Fill-17"></path>
                <path d="M64.976716,51.9106266 C64.976716,51.1931455 64.9758067,50.5601625 64.9782315,49.9268787 C64.9782315,49.8483948 64.9806563,49.7028538 65.0006611,49.699546 C65.6699117,49.5879846 66.3409809,49.4442479 67.0150811,49.4213943 C67.1957303,49.4153802 67.5288401,49.7693095 67.55521,49.9858168 C67.7916301,51.9361865 67.7088831,52.0107612 65.7162864,51.9698654 C65.5077518,51.9659562 65.2998234,51.9370886 64.976716,51.9106266" id="Fill-18"></path>
                <path d="M54.4038902,22.4767631 L59.1580549,22.4767631 C59.1580549,23.9411942 59.1738162,25.3626246 59.1356253,26.7825515 C59.1313819,26.9314003 58.8119117,27.1918104 58.6321718,27.1972231 C57.407031,27.2342097 56.1791623,27.2342097 54.9537184,27.1978245 C54.7667041,27.1927125 54.4320788,26.9434284 54.4278353,26.7990903 C54.3881289,25.378562 54.4038902,23.9559287 54.4038902,22.4767631" id="Fill-19"></path>
                <path d="M76.2203079,22.4671405 L80.9753819,22.4671405 C80.9753819,23.9442013 80.990537,25.3881845 80.9502243,26.8309649 C80.9465871,26.9650792 80.5925632,27.1957196 80.3958496,27.201433 C79.1973819,27.2363147 77.9967924,27.2155661 76.7968091,27.2209787 C76.4152029,27.2224823 76.20879,27.1022005 76.2139427,26.6718922 C76.2312196,25.2997774 76.2203079,23.9273618 76.2203079,22.4671405" id="Fill-20"></path>
                <path d="M59.1104678,48.8984691 L54.4678449,48.8984691 L54.4678449,44.2784444 L59.1104678,44.2784444 L59.1104678,48.8984691" id="Fill-21"></path>
                <path d="M99.6383198,56.231751 L89.1121718,56.231751 L89.1121718,54.4275237 L99.6383198,54.4275237 C99.8365489,54.4275237 100.023866,53.9569211 100.023866,53.4589543 L100.023866,39.3922961 L101.842482,39.3922961 L101.842482,53.4589543 C101.842482,55.0656187 100.915291,56.231751 99.6383198,56.231751" id="Fill-22"></path>
                <path d="M101.842482,28.8676369 L100.023866,28.8676369 L100.023866,16.0807773 C100.023866,15.7737579 99.9580931,15.6886585 99.9580931,15.6886585 C99.9580931,15.6886585 99.8850453,15.6366366 99.6383198,15.6366366 L89.1121718,15.6366366 L89.1121718,13.8324093 L99.6383198,13.8324093 C101.018346,13.8324093 101.842482,14.6728786 101.842482,16.0807773 L101.842482,28.8676369" id="Fill-23"></path>
                <path d="M33.947494,27.9655232 L32.1288783,27.9655232 L32.1288783,16.0807773 C32.1288783,14.6202553 33.5767995,13.8324093 34.9392458,13.8324093 L44.8591885,13.8324093 L44.8591885,15.6366366 L34.9392458,15.6366366 C34.4806516,15.6366366 33.947494,15.8305911 33.947494,16.0807773 L33.947494,27.9655232" id="Fill-24"></path>
                <path d="M44.2529833,56.231751 L34.9392458,56.231751 C33.5210286,56.231751 32.1288783,54.8584333 32.1288783,53.4589543 L32.1288783,39.3922961 L33.947494,39.3922961 L33.947494,53.4589543 C33.947494,53.848066 34.5406659,54.4275237 34.9392458,54.4275237 L44.2529833,54.4275237 L44.2529833,56.231751" id="Fill-25"></path>
                <path id="Fill-26"></path>
            </g>
        </g>
    </g>
</svg>