<?xml version="1.0" encoding="UTF-8" standalone="no"?>
<svg width="50px" height="39px" viewBox="0 0 50 39" version="1.1" xmlns="http://www.w3.org/2000/svg" xmlns:xlink="http://www.w3.org/1999/xlink">
    <!-- Generator: Sketch 3.8.1 (29687) - http://www.bohemiancoding.com/sketch -->
    <title>Imported Layers Copy 3</title>
    <desc>Created with Sketch.</desc>
    <defs></defs>
    <g id="Page-1" stroke="none" stroke-width="1" fill="none" fill-rule="evenodd">
        <g id="Artboard-24" transform="translate(-575.000000, -136.000000)" fill="#FFFFFF">
            <g id="Imported-Layers-Copy-3" transform="translate(575.000000, 136.000000)">
                <path d="M44.3567709,9.32942336 L15.547376,9.32942336 C12.605111,9.32942336 10.313712,11.9831213 10.313712,15.2514233 L10.313712,32.6422164 C10.313712,35.9099161 12.605111,38.6391974 15.547376,38.6391974 L44.3567709,38.6391974 C47.2990359,38.6391974 49.5951173,35.9099161 49.5951173,32.6422164 L49.5951173,15.2514233 C49.5951173,11.9831213 47.2990359,9.32942336 44.3567709,9.32942336 L44.3567709,9.32942336 Z M42.0540434,24.7693533 C39.6973916,27.11861 37.3449693,29.4677161 34.9884686,31.8169728 C33.9543937,32.8477369 32.3605346,31.2507 33.3946096,30.219936 C35.0097664,28.6096495 36.605287,26.9995135 38.2267878,25.3895281 L20.2404389,25.3895281 C18.7793511,25.3895281 18.7793511,23.1310618 20.2404389,23.1310618 L20.2537312,23.1310618 L38.8104375,23.1310618 C36.9865323,21.3280528 35.20341,19.5254955 33.3946096,17.7227877 C32.3605346,16.6920237 33.955451,15.0949868 34.989526,16.1257509 C37.3460266,18.4744053 39.695428,20.8235114 42.0519287,23.1721659 C42.4884575,23.6074476 42.4904212,24.3343727 42.0540434,24.7693533 L42.0540434,24.7693533 Z" id="Fill-1"></path>
                <path d="M39.4235415,6.77539905 L39.4235415,5.465338 C39.4235415,2.19613268 37.4997935,0 34.5575285,0 L5.74813361,0 C2.80586861,0 0,2.19613268 0,5.465338 L0,22.8555289 C0,26.1247342 2.80586861,29.3600625 5.74813361,29.3600625 L7.8544987,29.3600625 L7.8544987,12.1695201 C7.8544987,8.90061588 11.2622938,6.77539905 14.2045588,6.77539905 L39.4235415,6.77539905" id="Fill-2"></path>
            </g>
        </g>
    </g>
</svg>