<?xml version="1.0" encoding="UTF-8" standalone="no"?>
<svg width="22px" height="17px" viewBox="0 0 22 17" version="1.1" xmlns="http://www.w3.org/2000/svg" xmlns:xlink="http://www.w3.org/1999/xlink">
    <!-- Generator: Sketch 3.8.1 (29687) - http://www.bohemiancoding.com/sketch -->
    <title>Imported Layers</title>
    <desc>Created with Sketch.</desc>
    <defs></defs>
    <g id="Page-1" stroke="none" stroke-width="1" fill="none" fill-rule="evenodd">
        <g id="Artboard-24" transform="translate(-630.000000, -349.000000)" fill="#FFFFFF">
            <path d="M650.414709,363.93629 L650.414709,354.744776 C650.153037,355.031991 649.870844,355.295265 649.568214,355.534597 C647.376257,357.178375 645.6341,358.526771 644.341826,359.579866 C643.924694,359.92305 643.585291,360.190327 643.323537,360.381777 C643.061782,360.573227 642.708098,360.766679 642.262401,360.962212 C641.816623,361.157746 641.397438,361.255432 641.004766,361.255432 L640.980223,361.255432 C640.587633,361.255432 640.168448,361.157746 639.72267,360.962212 C639.276973,360.766679 638.923289,360.573227 638.661534,360.381777 C638.399862,360.190327 638.060295,359.92305 637.643245,359.579866 C636.350889,358.526771 634.608732,357.178375 632.416857,355.534597 C632.114309,355.295265 631.831952,355.031991 631.570362,354.744776 L631.570362,363.93629 C631.570362,364.040063 631.609186,364.129822 631.686916,364.205649 C631.764564,364.281397 631.856494,364.31919 631.962953,364.31919 L650.022118,364.31919 C650.128494,364.31919 650.220507,364.281397 650.298155,364.205649 C650.375885,364.129822 650.414709,364.040063 650.414709,363.93629 L650.414709,363.93629 Z M650.414709,351.357692 L650.414709,351.064632 C650.414709,351.064632 650.412739,351.012746 650.408553,350.908974 C650.404531,350.805282 650.392219,350.755477 650.371699,350.759401 C650.351343,350.763404 650.328771,350.727452 650.304229,350.651625 C650.279687,350.575878 650.242997,350.545931 650.19383,350.561946 C650.144828,350.57788 650.087454,350.567951 650.022118,350.531999 L631.962953,350.531999 C631.856659,350.531999 631.764564,350.569873 631.686916,350.64562 C631.609186,350.721527 631.570362,350.811207 631.570362,350.914979 C631.570362,352.255368 632.171519,353.388453 633.373751,354.313914 C634.952321,355.52675 636.592287,356.791312 638.293568,358.10776 C638.34257,358.147635 638.485718,358.26542 638.722848,358.460873 C638.960061,358.656326 639.148189,358.805979 639.287151,358.909671 C639.426277,359.013363 639.60825,359.139075 639.83315,359.286646 C640.058132,359.434297 640.264564,359.544074 640.452611,359.615818 C640.640739,359.687641 640.816719,359.723593 640.980223,359.723593 L641.004766,359.723593 C641.168352,359.723593 641.344332,359.687641 641.532378,359.615818 C641.720425,359.544074 641.926939,359.434297 642.152003,359.286646 C642.376821,359.139075 642.558876,359.013363 642.697838,358.909671 C642.836964,358.805979 643.02501,358.656326 643.262223,358.460873 C643.499435,358.26542 643.642583,358.147635 643.691585,358.10776 C645.392784,356.791312 647.03275,355.52675 648.61132,354.313914 C649.052995,353.97081 649.463972,353.509921 649.84425,352.931648 C650.224611,352.353135 650.414709,351.828509 650.414709,351.357692 L650.414709,351.357692 Z M651.985071,350.914979 L651.985071,363.93629 C651.985071,364.462918 651.792921,364.913718 651.408456,365.28877 C651.023992,365.663743 650.561961,365.851189 650.022118,365.851189 L631.962953,365.851189 C631.42311,365.851189 630.960997,365.663743 630.576533,365.28877 C630.19215,364.913718 630,364.462918 630,363.93629 L630,350.914979 C630,350.388432 630.19215,349.937552 630.576533,349.562579 C630.960997,349.187526 631.42311,349 631.962953,349 L650.022118,349 C650.561961,349 651.023992,349.187526 651.408456,349.562579 C651.792921,349.937552 651.985071,350.388432 651.985071,350.914979 L651.985071,350.914979 Z" id="Imported-Layers"></path>
        </g>
    </g>
</svg>