<?xml version="1.0" encoding="UTF-8" standalone="no"?>
<svg width="141px" height="101px" viewBox="0 0 141 101" version="1.1" xmlns="http://www.w3.org/2000/svg" xmlns:xlink="http://www.w3.org/1999/xlink">
    <!-- Generator: Sketch 3.8.1 (29687) - http://www.bohemiancoding.com/sketch -->
    <title>logo hi</title>
    <desc>Created with Sketch.</desc>
    <defs></defs>
    <g id="Page-1" stroke="none" stroke-width="1" fill="none" fill-rule="evenodd">
        <g id="splash" transform="translate(-90.000000, -80.000000)" fill="#FFFFFF">
            <g id="logo-hi" transform="translate(90.000000, 80.000000)">
                <g id="Imported-Layers-Copy" transform="translate(0.916977, 0.000000)">
                    <path d="M130.625652,16.0016832 L123.236934,16.0016832 L123.236934,13.0182467 C123.236934,7.05455104 119.473956,2.38293647 114.668411,2.38293647 L8.57567046,2.38293647 C3.77123281,2.38293647 0.00714794246,7.05455104 0.00714794246,13.0182467 L0.00714794246,75.9436558 C0.00714794246,81.9084106 3.77123281,86.5800251 8.57567046,86.5800251 L15.9643887,86.5800251 L15.9643887,89.5624025 C15.9643887,95.5271573 19.7284735,100.198772 24.5329112,100.198772 L130.625652,100.198772 C135.431196,100.198772 139.194175,95.5271573 139.194175,89.5624025 L139.194175,26.6369934 C139.194175,20.6732977 135.431196,16.0016832 130.625652,16.0016832 L130.625652,16.0016832 Z M8.57567046,81.2846107 C7.1424185,81.2846107 5.54093929,79.0012281 5.54093929,75.9436558 L5.54093929,13.0182467 C5.54093929,9.96173353 7.1424185,7.67835085 8.57567046,7.67835085 L114.668411,7.67835085 C116.100557,7.67835085 117.703143,9.96173353 117.703143,13.0182467 L117.703143,16.0016832 L24.5329112,16.0016832 C19.7284735,16.0016832 15.9643887,20.6732977 15.9643887,26.6369934 L15.9643887,81.2846107 L8.57567046,81.2846107 L8.57567046,81.2846107 Z M117.703143,21.2970976 L117.703143,75.9436558 C117.703143,79.0012281 116.100557,81.2846107 114.668411,81.2846107 L21.49818,81.2846107 L21.49818,26.6369934 C21.49818,23.5815393 23.0996592,21.2970976 24.5329112,21.2970976 L117.703143,21.2970976 L117.703143,21.2970976 Z M133.66149,89.5624025 C133.66149,92.6199748 132.057797,94.9033575 130.625652,94.9033575 L24.5329112,94.9033575 C23.0996592,94.9033575 21.49818,92.6199748 21.49818,89.5624025 L21.49818,86.5800251 L114.668411,86.5800251 C119.473956,86.5800251 123.236934,81.9084106 123.236934,75.9436558 L123.236934,21.2970976 L130.625652,21.2970976 C132.057797,21.2970976 133.66149,23.5815393 133.66149,26.6369934 L133.66149,89.5624025 L133.66149,89.5624025 Z" id="Fill-1"></path>
                    <path d="M54.9311338,58.4359568 C54.9311338,55.7109365 55.6505267,53.5334621 57.0904192,51.9024745 C58.5303117,50.2714869 60.3697439,49.4559931 62.6109294,49.4559931 C63.9301853,49.4559931 64.9993138,49.6868731 65.8216352,50.1475742 C66.6406363,50.6082752 67.2914101,51.2214842 67.7706365,51.9893193 C68.2509696,52.7560953 68.5818903,53.6383113 68.7611851,54.6359674 C68.94048,55.6336235 69.0312341,56.6895291 69.0312341,57.8026252 L69.0312341,72.8818472 L74.6712743,72.8818472 L74.6712743,56.0021843 C74.6712743,54.4718096 74.4609902,53.0356932 74.0415288,51.6948943 C73.6198539,50.3562135 72.9690801,49.1880451 72.090314,48.1935663 C71.2104412,47.1980284 70.1103234,46.4037162 68.7910676,45.8106298 C67.470705,45.2164843 65.8902542,44.9199411 64.0508219,44.9199411 C62.0099597,44.9199411 60.1705274,45.3986466 58.5303117,46.3549984 C56.8889892,47.3134684 55.7302133,48.4615142 55.0495569,49.800195 L54.9311338,49.800195 L54.9311338,29.4753355 L49.2899869,29.4753355 L49.2899869,72.8818472 L54.9311338,72.8818472 L54.9311338,58.4359568" id="Fill-2"></path>
                    <polygon id="Fill-3" points="84.2701887 45.6665945 89.9113356 45.6665945 89.9113356 72.8818472 84.2701887 72.8818472"></polygon>
                    <path d="M87.0614331,39.2940929 C88.0929318,39.2940929 88.9750181,38.9689544 89.7087989,38.3176185 C90.4436864,37.6662825 90.8111301,36.8444342 90.8111301,35.8488963 C90.8111301,34.8533584 90.4436864,34.0209192 89.7087989,33.3505198 C88.9750181,32.6811794 88.0929318,32.3454501 87.0614331,32.3454501 C86.0288276,32.3454501 85.1567021,32.6811794 84.442843,33.3505198 C83.7278772,34.0209192 83.3703943,34.8533584 83.3703943,35.8488963 C83.3703943,36.8052481 83.7278772,37.6186238 84.442843,38.2879641 C85.1567021,38.9583636 86.0288276,39.2940929 87.0614331,39.2940929" id="Fill-4"></path>
                    <path d="M139.21631,4.30623097 C139.098993,3.90589765 138.935193,3.53204139 138.722696,3.18466221 C138.509091,2.83834211 138.254537,2.52061725 137.954605,2.23360579 C137.655781,1.94871249 137.32486,1.70406435 136.961843,1.50072044 C136.598826,1.29737652 136.209248,1.13957317 135.789786,1.02836947 C135.371432,0.915047605 134.936476,0.85785713 134.486025,0.85785713 C134.033361,0.85785713 133.600618,0.915047605 133.18337,1.02836947 C132.768336,1.13957317 132.37765,1.29737652 132.01574,1.50072044 C131.652724,1.70406435 131.321803,1.94871249 131.022978,2.23360579 C130.723047,2.52061725 130.468492,2.83834211 130.254888,3.18466221 C130.04239,3.53204139 129.877483,3.90589765 129.761274,4.30623097 C129.643957,4.70550522 129.584193,5.12278387 129.584193,5.55488969 C129.584193,5.98593642 129.643957,6.40215599 129.761274,6.80037115 C129.877483,7.19858631 130.04239,7.5703244 130.254888,7.9166445 C130.468492,8.26190552 130.723047,8.57645313 131.022978,8.86240551 C131.321803,9.14941697 131.652724,9.39300603 132.01574,9.59529086 C132.37765,9.79969385 132.768336,9.9574972 133.18337,10.06976 C133.600618,10.1809637 134.033361,10.2381542 134.486025,10.2381542 C134.936476,10.2381542 135.371432,10.1809637 135.789786,10.06976 C136.209248,9.9574972 136.598826,9.79969385 136.961843,9.59529086 C137.32486,9.39300603 137.655781,9.14941697 137.954605,8.86240551 C138.254537,8.57645313 138.509091,8.26190552 138.722696,7.9166445 C138.935193,7.5703244 139.098993,7.19752723 139.21631,6.7971939 C139.333626,6.39686057 139.393391,5.98170008 139.393391,5.55488969 C139.393391,5.12278387 139.333626,4.70550522 139.21631,4.30623097 L139.21631,4.30623097 Z M138.204733,7.09903252 C137.995555,7.57773798 137.711119,7.99395755 137.348102,8.34769123 C136.983978,8.70142491 136.557876,8.97890462 136.065369,9.18330762 C135.573968,9.38665153 135.047151,9.48832349 134.486025,9.48832349 C133.922685,9.48832349 133.399188,9.38665153 132.912215,9.18330762 C132.424134,8.97890462 132.001353,8.70142491 131.639443,8.34769123 C131.278639,7.99395755 130.995309,7.57773798 130.790559,7.09903252 C130.584702,6.62032706 130.480667,6.10667186 130.480667,5.55488969 C130.480667,5.18632884 130.527151,4.83153608 130.620118,4.49368864 C130.713086,4.15478212 130.845897,3.83811634 131.019658,3.5436913 C131.192312,3.24926626 131.398169,2.98237738 131.639443,2.74302465 C131.881823,2.50367192 132.149658,2.29820984 132.446269,2.12663842 C132.742881,1.95506699 133.062734,1.82268163 133.405829,1.72948234 C133.748924,1.63628304 134.10862,1.5896834 134.486025,1.5896834 C134.861216,1.5896834 135.223126,1.63628304 135.567328,1.72948234 C135.913743,1.82268163 136.234703,1.95506699 136.531314,2.12663842 C136.827925,2.29820984 137.097974,2.50367192 137.344782,2.74302465 C137.589375,2.98237738 137.799659,3.24926626 137.971207,3.5436913 C138.143861,3.83811634 138.277779,4.15478212 138.37296,4.49368864 C138.468141,4.83153608 138.515732,5.18632884 138.515732,5.55488969 C138.515732,6.10667186 138.411696,6.62032706 138.204733,7.09903252 L138.204733,7.09903252 Z" id="Fill-5"></path>
                    <path d="M135.846231,6.15009426 C135.779825,6.06642671 135.695712,5.99758633 135.59389,5.94251402 C136.023312,5.81118774 136.339845,5.60466658 136.544595,5.32189145 C136.748239,5.04123449 136.848954,4.71185972 136.848954,4.33482621 C136.848954,3.80634386 136.656378,3.39859695 136.272333,3.11476274 C135.887181,2.83092853 135.279571,2.68901142 134.451715,2.68901142 L132.321206,2.68901142 L132.321206,8.38899546 L133.742283,8.38899546 L133.742283,6.32378385 L134.106407,6.32378385 C134.217083,6.32378385 134.301196,6.3396701 134.355427,6.37144258 C134.410765,6.40321507 134.460569,6.44875563 134.505947,6.50700519 L135.461079,8.17929705 C135.541872,8.31909599 135.681324,8.38899546 135.879434,8.38899546 L137.248494,8.38899546 L136.045447,6.4381648 C135.980149,6.32802019 135.913743,6.23164364 135.846231,6.15009426 L135.846231,6.15009426 Z M135.402421,4.86966306 C135.370325,4.97451227 135.314987,5.06347523 135.23198,5.13655195 C135.15008,5.2075105 135.037191,5.26258281 134.891098,5.29753255 C134.7439,5.33354136 134.557964,5.35154577 134.333292,5.35154577 L133.742283,5.35154577 L133.742283,3.71949906 L134.451715,3.71949906 C134.655359,3.71949906 134.822479,3.73326714 134.953077,3.76715779 C135.084781,3.79787119 135.185496,3.84658901 135.258542,3.91119306 C135.331588,3.97791528 135.381392,4.06052375 135.409061,4.16007754 C135.435624,4.25857225 135.448905,4.37507136 135.448905,4.50639764 C135.448905,4.64196025 135.43341,4.76269569 135.402421,4.86966306 L135.402421,4.86966306 Z" id="Fill-6"></path>
                </g>
            </g>
        </g>
    </g>
</svg>