<?xml version="1.0" encoding="UTF-8" standalone="no"?>
<svg width="11px" height="17px" viewBox="0 0 11 17" version="1.1" xmlns="http://www.w3.org/2000/svg" xmlns:xlink="http://www.w3.org/1999/xlink">
    <!-- Generator: Sketch 3.8.1 (29687) - http://www.bohemiancoding.com/sketch -->
    <title>Pin</title>
    <desc>Created with Sketch.</desc>
    <defs></defs>
    <g id="Page-1" stroke="none" stroke-width="1" fill="none" fill-rule="evenodd">
        <g id="Artboard-24" transform="translate(-590.000000, -382.000000)" fill="#FFFFFF">
            <path d="M595.182118,382 C592.426085,382 590,384.078522 590,386.888376 C590,389.197844 593.842919,396.337952 595.182118,398.666667 C596.501909,396.337952 600.344828,389.197844 600.344828,386.888376 C600.344828,384.078522 597.918742,382 595.182118,382 L595.182118,382 Z M595.182118,388.408776 C594.114641,388.408776 593.24125,387.542725 593.24125,386.484219 C593.24125,385.425712 594.114641,384.559661 595.182118,384.559661 C596.249596,384.559661 597.122986,385.425712 597.122986,386.484219 C597.122986,387.542725 596.249596,388.408776 595.182118,388.408776 L595.182118,388.408776 Z" id="Pin"></path>
        </g>
    </g>
</svg>